<svg width="128" height="128" viewBox="0 0 128 128" fill="none" xmlns="http://www.w3.org/2000/svg">
<path fill-rule="evenodd" clip-rule="evenodd" d="M110.265 62.1647C106.064 64.909 103.153 67.5301 101.261 70.5249C100.702 71.3703 99.4656 72.2234 100.041 73.2844C100.743 73.413 101.259 74.0541 102.019 74.3776C103.353 74.9916 105.401 75.6472 106.887 75.6996C108.545 75.7844 110.2 75.8657 111.838 75.8095C114.713 75.6757 117.484 74.8341 120.303 74.732C121.943 74.6734 123.719 74.8284 125.397 74.8248C126.249 74.8504 127.074 75.2803 127.977 75.0372L127.869 74.8798C127.183 74.6642 126.615 74.0581 125.895 73.7831C125.025 73.6223 124.183 73.508 123.309 73.3469C120.413 72.3522 117.335 71.8689 114.324 71.7977C111.88 71.7906 107.191 72.7232 105.2 71.266C105.2 71.266 105.108 71.2482 105.022 71.232C106.085 70.3432 107.141 68.9998 108.006 67.9377C109.435 66.2629 111.108 65.2651 112.591 63.553C113.273 62.7732 113.918 61.942 114.571 61.1145L114.246 60.6433C112.668 60.3536 111.138 59.5646 109.549 59.3576C105.342 58.8843 100.909 58.6455 96.6244 58.8346C94.3053 58.8994 91.7779 59.6502 89.4636 59.9389C88.6319 60.0515 87.4951 60.6085 86.7717 60.3358C85.0537 59.8334 83.4969 58.6849 81.8939 57.7926C78.4288 55.9673 74.7944 53.7952 71.4233 51.6629C69.0975 50.2769 67.132 48.6423 64.7047 47.5526C53.2901 42.3796 43.8221 41.0118 31.3257 41.8807C28.6625 42.1046 26.0704 43.2026 23.2529 44.3018C21.9235 45.1385 20.5653 45.9263 19.2404 46.7649C18.1616 46.9697 16.6528 46.5513 15.6093 46.5809C11.3769 46.7397 0.999597 47.9142 2.52514 54.7642C3.46457 59.1068 9.21564 60.0482 11.5867 60.9456C13.2868 61.5353 15.3574 62.1055 16.9047 63.0301C17.8762 63.665 18.6266 64.5311 19.6337 65.2151C22.0361 66.9336 24.5667 68.949 27.1238 70.3329C28.4425 71.0348 29.851 71.7535 31.2511 72.2386C32.0647 72.5266 32.9615 72.2866 33.7645 73.1181C33.7612 74.6533 34.7809 76.2517 35.2661 77.837C37.4629 84.9928 43.2048 91.774 48.8134 94.2728C50.5333 95.0044 54.4697 96.5106 56.3458 93.6012C58.0227 91.0656 55.4624 88.4577 54.3403 85.3974C54.0612 84.6626 53.6732 84.3219 53.6953 83.6936L53.7678 83.7987C55.4926 84.7544 57.1827 85.655 58.8605 86.6534C62.2178 88.0936 66.8306 88.8258 70.3724 88.989C72.255 89.0768 74.3461 90.0092 76.2894 89.5152L76.181 89.3581L76.0796 89.4281C75.4469 89.176 74.8395 89.2858 74.1761 89.2086C72.602 88.9124 70.7831 88.4783 69.3409 87.9394C65.1673 86.5232 61.031 84.6163 57.0372 82.461C55.095 81.4165 53.1558 80.1477 51.3734 79C50.6363 78.592 49.9889 77.6534 49.2573 77.6989C49.2695 79.3767 48.8199 81.147 49.2188 82.9373C49.7818 85.8523 51.5798 88.678 53.1896 91.7898C53.0221 91.9856 53.0882 91.8598 53.0559 92.0346C51.1202 92.7564 49.3691 91.4326 47.7476 90.4097C43.6501 87.781 39.3014 82.0336 37.7037 76.8428C37.3113 75.5052 36.4961 71.0031 35.1572 70.3922C34.1609 69.6153 32.7394 69.7598 31.6326 69.3674C30.2823 68.8414 28.6969 68.0972 27.4824 67.3201C24.2357 65.2643 21.3883 62.4691 18.0435 60.4809C16.4898 59.5541 14.4355 58.899 12.7023 58.2567C10.7516 57.53 8.98791 57.2891 7.0666 56.1618C6.41544 55.765 5.40788 55.078 5.3899 54.1723C5.20392 53.6857 5.3053 53.3846 5.64661 52.9951C5.91884 51.9629 8.33131 51.3709 9.21572 51.2215C11.6624 50.6814 13.7667 50.3101 16.1157 50.2981C17.1982 50.3203 18.6532 50.7741 19.7611 50.3967L20.8468 49.6478C22.7459 48.8705 24.425 47.3286 26.2978 46.7301C29.6396 45.7283 33.0118 45.3202 36.2004 45.1929C45.9333 44.8482 55.7384 47.1409 64.5588 51.8738C66.0032 52.6398 67.0174 53.5535 68.443 54.4079C71.2876 56.2132 74.4233 57.8865 77.2245 59.6337C79.9928 61.3309 82.7468 63.1112 85.6975 64.0729C87.221 64.6306 90.7118 63.0666 92.4999 62.6778C93.8512 62.4341 95.7401 61.7458 97.0633 61.6759C99.5689 61.5561 102.181 61.5984 104.661 61.6555C105.915 61.7115 109.391 61.2297 110.265 62.1639" fill="#00758F"/>
<path fill-rule="evenodd" clip-rule="evenodd" d="M26.4717 53.2786C25.5965 53.8823 25.0528 54.4148 24.5365 54.9988L24.6086 55.1032L24.7089 55.034C25.6979 55.5764 26.8188 55.6541 27.8314 56.0278C28.8209 56.5732 29.7541 57.1525 30.7411 57.7013C30.7566 57.6152 30.7686 57.5266 30.7686 57.5266C31.139 56.5071 30.9262 55.4275 30.0641 54.1777C29.4993 54.0263 29.2017 53.6988 28.6895 53.5127C28.023 53.2069 27.1724 53.41 26.4717 53.2786Z" fill="#00758F"/>
</svg>
