<svg xmlns="http://www.w3.org/2000/svg" xml:space="preserve" version="1.0" viewBox="0 0 841.89 595.28"><path d="M686.05 301.56c0-23.99 17.77-37.9 39.98-37.9 16.58 0 31.39 8 38.49 27.83-2.07 10.07-14.51 21.32-19.84 23.1-4.44-9.48-9.48-15.1-14.21-15.1-5.92 0-6.22 4.15-6.22 9.48 0 3.78 1.08 9.33 2.38 16.03 1.96 10.11 4.43 22.79 4.43 35.8 0 23.69-16.58 41.16-42.05 41.16-23.32 0-36.2-15.29-41.95-39.71-15.23 27.3-37.51 39.71-54.58 39.71-26.69 0-32.97-19.73-32.34-39.74-10.72 18.95-31.37 39.74-51.17 39.74-20.21 0-27.35-17.59-25.71-38.08-12.11 22.55-34.01 38.08-55.13 38.08-22.91 0-34.25-18.2-30.58-40.76-15.42 18.95-44.11 40.76-73.94 40.76-34.02 0-48.82-18.34-50.58-41.33-16.42 26.31-38.55 42.22-64.91 42.22-38.05 0-51.66-33.84-53.64-61.52-14.1 18.88-29.96 38.48-49.41 60.33-2.07 2.07-3.85 3.26-5.92 3.26-6.81 0-20.73-30.2-21.62-41.46 5.84-9.07 42.68-49.54 72.34-82.13 10.43-11.45 19.96-21.93 26.96-29.73-18.16 5.48-36.89 16.41-60.51 33.39-4.15 2.96-15.69-23.99-15.4-44.71 27.24-20.14 68.7-32.87 102.16-32.87 46.79 0 73.73 26.06 73.73 62.18 0 30.2-25.17 63.37-61.89 64.55-19.09.5-31.33-10.22-37.59-23.46.75 20.47 11.39 45.66 39.96 45.66 31.14 0 46.1-18.8 68.4-46.83 1.45-1.82 2.93-3.68 4.45-5.58 18.95-23.39 40.86-44.12 72.84-44.12 19.54 0 32.87 12.14 32.87 30.5 0 22.21-26.06 53-62.48 53-6.22 0-11.89-.82-16.68-2.44-.12.93-.2 1.85-.2 2.74 0 10.36 3.85 16.58 20.73 16.58 24.87 0 48.27-14.81 76.69-49.45 27.84-34.05 48.86-48.86 71.07-48.86 14.99 0 26.37 8.13 31.38 21.81 29.76-42.99 55.01-73.45 76.4-93.76 21.02 8.88 36.13 26.35 31.98 29.91-15.69 14.21-68.11 71.36-88.83 105.42-5.33 8.88-10.36 18.66-10.36 23.39 0 4.44 2.66 5.92 5.63 5.92 14.23 0 42.74-33.59 67.37-62.6 9.2-10.84 17.85-21.03 25.02-28.6 16.58 6.81 33.46 21.32 29.32 26.35-21.91 26.06-38.49 47.38-38.49 59.52 0 3.26 1.18 5.33 5.63 5.33 8.29 0 15.99-7.4 28.72-23.1 2.66-3.26 5.92-3.26 7.99 1.78 5.63 13.62 13.92 21.02 20.43 21.02 7.7 0 11.55-6.81 11.55-17.17 0-7.08-.86-15.32-1.61-22.41-.57-5.37-1.06-10.07-1.06-13.13m-477.63-3.85c15.69 0 32.87-8.59 32.87-26.06 0-10.6-6.58-20.38-24.17-23.35q-1.395 2.175-2.76 4.32c-8.94 13.97-17.36 27.14-25.87 40.02 5.09 2.86 11.54 5.07 19.93 5.07m158.71 5.33c0-4.74-2.96-7.99-7.7-7.99-11.88 0-29.8 16.67-38.23 32.77 3.11 1.2 6.77 1.87 10.69 1.87 21.03 0 35.24-15.99 35.24-26.65m77.88 42.93c0 5.33 2.96 8.88 9.18 8.88 19.25 0 43.23-34.94 43.23-49.16 0-5.92-3.26-9.48-8.59-9.48-17.46.02-43.82 33.18-43.82 49.76m247.25-106.89c-6.81 11.25-17.17 23.99-21.02 27.83-17.77-7.4-34.35-22.21-31.98-26.35 6.51-11.55 17.17-23.99 21.02-27.83 17.77 7.4 34.35 22.5 31.98 26.35" style="fill-rule:evenodd;clip-rule:evenodd;fill:#ff4438"/></svg>