<svg width="340" height="108" viewBox="0 0 340 108" fill="none" xmlns="http://www.w3.org/2000/svg">
<path d="M23.7164 63.5053C17.4494 67.047 18.5031 85.8439 39.9292 85.8439C61.3553 85.8439 101.381 31.0024 104.414 15.2985C107.225 0.74292 96.3614 1.95002 94.4744 14.6817C93.0232 24.473 83.4968 79.5111 81.8083 106.719" stroke="white" stroke-width="2" stroke-linecap="round" stroke-linejoin="round"/>
<path d="M69.805 36.9079C69.805 36.9079 66.401 43.1752 74.2321 43.6612C82.0632 44.1472 107.337 26.6671 106.701 36.9079C106.29 43.5342 87.8255 48.7378 87.9002 47.533C87.975 46.3282 112.708 42.4207 111.849 56.2758C110.989 70.1309 89.0596 72.7006 76.4093 71.9155C45.6872 70.0089 52.8059 77.1025 0.999987 73.8874L330.781 70.4675" stroke="white" stroke-width="2" stroke-linecap="round" stroke-linejoin="round"/>
<path d="M106.13 65.6963C106.695 66.3361 108.428 67.653 110.837 67.8026C117.163 68.1951 124.798 52.3417 124.138 48.37C123.477 44.3984 120.598 46.9409 121.728 48.2205C122.858 49.5001 128.768 46.8432 129.559 48.7065C130.351 50.5698 121.284 65.1249 127.006 65.4801C131.585 65.7642 135.956 54.4451 138.011 48.9287C135.454 54.414 132.247 65.8053 136.344 66.0595C140.44 66.3138 143.081 63.051 144.605 59.618" stroke="white" stroke-width="2" stroke-linecap="round" stroke-linejoin="round"/>
<path d="M158.596 53.9758C158.338 53.2543 157.16 51.7702 154.51 51.6057C151.196 51.4001 147.109 54.761 144.95 59.4785C143.201 63.3006 144.951 65.5148 148.267 65.5148C151.582 65.5148 156.808 56.7877 160.232 51.9609C157.549 56.2289 155.536 65.2755 159.391 65.5148C164.21 65.8138 167.52 53.0179 170.833 53.2235C172.942 53.3544 170.045 64.3618 171.551 64.4553C175.166 64.6796 177.099 53.0077 181.919 53.3067C184.328 53.4563 177.069 64.7977 186.406 65.3772C195.743 65.9566 196.376 54.204 191.688 51.7965" stroke="white" stroke-width="2" stroke-linecap="round" stroke-linejoin="round"/>
<path d="M143.673 38.4785L143.541 35.749" stroke="white" stroke-width="2" stroke-linecap="round" stroke-linejoin="round"/>
<path d="M228.038 26.9822C224.247 39.3451 215.829 63.8982 212.486 63.2069C208.306 62.3428 204.652 57.8831 207.721 57.1664C210.175 56.5931 229.148 56.1782 238.328 56.0424C239.64 56.023 241.754 55.4084 239.72 53.1052M248.384 20.6859L229.804 61.8628C229.202 63.438 228.872 66.1589 232.365 64.4406" stroke="white" stroke-width="2" stroke-linecap="round" stroke-linejoin="round"/>
<path d="M244.718 55.2863C241.545 58.3963 236.801 64.716 243.214 65.114C251.23 65.6115 255.411 52.5672 250.958 52.2909C246.505 52.0145 246.899 53.7681 246.796 55.4152C246.548 59.4155 320.585 57.3962 327.574 55.2315" stroke="white" stroke-width="2" stroke-linecap="round" stroke-linejoin="round"/>
<circle cx="338.72" cy="59.4706" r="1.20711" transform="rotate(3.55123 338.72 59.4706)" fill="white"/>
<circle cx="336.315" cy="68.9967" r="1.20711" transform="rotate(3.55123 336.315 68.9967)" fill="white"/>
</svg>
